<?xml version="1.0" encoding="utf-8"?>
<!-- Generator: Adobe Illustrator 24.1.0, SVG Export Plug-In . SVG Version: 6.00 Build 0)  -->
<svg version="1.1" id="Layer_1" xmlns="http://www.w3.org/2000/svg" xmlns:xlink="http://www.w3.org/1999/xlink" x="0px" y="0px"
	 viewBox="0 0 314.64 103.15" style="enable-background:new 0 0 314.64 103.15;" xml:space="preserve">
<style type="text/css">
	.st0{fill:#008EC6;}
	.st1{fill:#FFFFFF;}
</style>
<g>
	<path class="st0" d="M197.14,21.89c-1.23,0-2.45,0.04-3.65,0.1C178.76,8.7,154.4,0,126.83,0c-22.44,0-42.76,5.76-57.49,15.06
		c-5.33-1.42-11.07-2.2-17.05-2.2C23.96,12.86,0,30.2,0,51.58c0,21.38,23.96,38.71,52.29,38.71c5.98,0,11.71-0.78,17.05-2.2
		c14.73,9.3,35.04,15.06,57.49,15.06c27.57,0,51.93-8.7,66.66-21.99c1.21,0.06,2.42,0.1,3.66,0.1c25.88,0,41.66-13.29,41.66-29.69
		C238.8,35.18,223.02,21.89,197.14,21.89z"/>
	<g>
		<path class="st0" d="M243.75,41.93c0-1.74,1.21-3.17,3.06-3.17c1.85,0,3.06,1.48,3.06,3.22v0.32c1.53-2.32,4.12-3.75,7.24-3.75
			c7.03,0,10.72,5.86,10.72,12.1c0,6.23-3.75,12.1-10.72,12.1c-2.75,0-5.44-1.16-7.03-3.75v10.25c0,1.74-1.43,3.17-3.17,3.17
			c-1.74,0-3.17-1.43-3.17-3.17V41.93z M255.74,43.94c-3.65,0-5.65,3.17-5.65,6.71c0,3.54,2.06,6.71,5.65,6.71
			c3.64,0,5.76-3.01,5.76-6.71C261.5,46.95,259.39,43.94,255.74,43.94z"/>
		<path class="st0" d="M292.66,41.67c0.58,0.63,0.9,1.27,0.9,2.17c0,1.43-1,2.43-2.48,2.43c-0.84,0-1.37-0.21-1.95-0.63
			c-0.85-0.63-2.27-1.69-4.54-1.69c-4.07,0-6.18,3.17-6.18,6.71c0,3.54,2.11,6.71,6.18,6.71c2.27,0,3.7-1.06,4.54-1.69
			c0.58-0.42,1.11-0.63,1.95-0.63c1.48,0,2.48,1,2.48,2.43c0,0.9-0.32,1.53-0.9,2.17c-1.53,1.69-4.38,3.12-8.13,3.12
			c-7.66,0-12.47-5.33-12.47-12.1s4.81-12.1,12.47-12.1C288.28,38.55,291.13,39.98,292.66,41.67z"/>
		<path class="st0" d="M311.78,44.26c-3.75,0-6.18,2.59-6.18,6.87v8.24c0,1.74-1.43,3.17-3.17,3.17c-1.74,0-3.22-1.43-3.22-3.17
			V41.98c0-1.9,1.32-3.22,3.22-3.22c1.74,0,3.17,1.48,3.17,3.22v0.58c1.11-2.54,3.12-4.01,6.18-4.01c1.85,0,2.85,1.27,2.85,2.85
			C314.64,42.99,313.47,44.26,311.78,44.26z"/>
	</g>
	<g>
		<path class="st1" d="M46.84,67.56c-1.61,0.84-3.26,1.52-4.95,2.03c-1.69,0.51-3.39,0.87-5.1,1.08c-1.72,0.22-3.49,0.32-5.33,0.32
			c-3.39,0-6.44-0.47-9.13-1.41c-2.69-0.94-5.03-2.32-7-4.15c-1.98-1.83-3.46-3.96-4.44-6.41c-0.98-2.45-1.48-5.13-1.48-8.06
			c0-3.36,0.58-6.29,1.74-8.82c1.16-2.52,2.79-4.62,4.88-6.29c2.09-1.67,4.47-2.9,7.14-3.7c2.67-0.8,5.49-1.2,8.45-1.2
			c4.42,0,9.44,0.98,15.05,2.95v10.35c-1.93-1.2-3.84-2.2-5.72-3c-1.88-0.79-4.1-1.2-6.65-1.2c-2.27,0-4.39,0.45-6.36,1.35
			c-1.97,0.9-3.55,2.18-4.75,3.85c-1.2,1.67-1.8,3.62-1.8,5.85c0,1.97,0.52,3.77,1.58,5.41c1.05,1.64,2.51,2.94,4.37,3.91
			c1.87,0.97,3.97,1.45,6.31,1.45c1.89,0,3.68-0.23,5.37-0.69c1.69-0.46,3.11-0.97,4.26-1.53c1.15-0.56,2.34-1.23,3.56-2V67.56z"/>
		<path class="st1" d="M84.36,70.48H54.75V31.5H66.5v29.64h17.86V70.48z"/>
		<path class="st1" d="M129.62,50.96c0,3.64-0.84,6.98-2.52,10.04c-1.68,3.06-4.18,5.48-7.5,7.29c-3.32,1.8-7.36,2.7-12.12,2.7
			c-4.82,0-8.9-0.94-12.23-2.81c-3.34-1.88-5.82-4.34-7.44-7.4c-1.62-3.06-2.43-6.33-2.43-9.82c0-3.51,0.81-6.78,2.42-9.83
			c1.61-3.04,4.09-5.5,7.44-7.37c3.35-1.87,7.43-2.8,12.25-2.8c3.6,0,6.81,0.53,9.63,1.6c2.82,1.07,5.14,2.52,6.96,4.34
			c1.82,1.83,3.2,3.96,4.13,6.38C129.15,45.73,129.62,48.29,129.62,50.96z M117.64,50.96c0-1.46-0.22-2.8-0.65-4.01
			c-0.43-1.21-1.08-2.26-1.95-3.15c-0.87-0.89-1.94-1.58-3.19-2.08c-1.26-0.5-2.71-0.75-4.36-0.75c-3.15,0-5.62,0.92-7.42,2.76
			c-1.8,1.84-2.7,4.25-2.7,7.23c0,2.98,0.9,5.4,2.71,7.24c1.81,1.85,4.28,2.77,7.41,2.77c2.16,0,3.99-0.43,5.51-1.28
			c1.52-0.85,2.67-2.03,3.46-3.54C117.24,54.64,117.64,52.92,117.64,50.96z"/>
		<path class="st1" d="M177.54,53.02c0,3.34-0.62,6.18-1.87,8.54c-1.25,2.35-2.9,4.21-4.95,5.58c-2.05,1.37-4.27,2.35-6.64,2.95
			c-2.37,0.6-4.74,0.9-7.1,0.9c-3.3,0-6.51-0.56-9.63-1.69c-3.12-1.12-5.73-3.04-7.83-5.74c-2.1-2.7-3.15-6.21-3.15-10.55V31.5
			h11.73v18.48c0,2.57,0.37,4.69,1.11,6.37c0.74,1.68,1.77,2.91,3.09,3.68c1.32,0.78,2.88,1.17,4.68,1.17
			c1.72,0,3.25-0.38,4.58-1.15c1.33-0.77,2.37-1.99,3.11-3.66c0.74-1.67,1.11-3.79,1.11-6.36V31.5h11.76V53.02z"/>
		<path class="st1" d="M226.84,51.7c0,3.99-0.73,7.2-2.18,9.62c-1.45,2.42-3.16,4.38-5.13,5.88c-2.79,2.19-6.7,3.29-11.73,3.29
			h-0.59h-20.45V31.5h16.2c2.44,0,4.52,0.13,6.26,0.38c1.73,0.25,3.29,0.61,4.68,1.07c1.39,0.46,2.57,0.97,3.54,1.55
			c0.97,0.57,1.85,1.19,2.62,1.84c1.33,1.09,2.5,2.37,3.5,3.85c1,1.48,1.8,3.2,2.39,5.15C226.55,47.29,226.84,49.41,226.84,51.7z
			 M214.89,51.19c0-3.17-0.61-5.64-1.81-7.41s-2.66-2.96-4.36-3.56c-1.7-0.6-3.43-0.9-5.19-0.9h-5.01v23.09h5.01
			c3.08,0,5.74-0.73,7.99-2.19C213.77,58.76,214.89,55.75,214.89,51.19z"/>
	</g>
</g>
</svg>
